<?xml version="1.0" encoding="UTF-8"?>
<svg width="530px" height="452px" viewBox="0 0 530 452" version="1.1" xmlns="http://www.w3.org/2000/svg" xmlns:xlink="http://www.w3.org/1999/xlink">
    <title>编组</title>
    <defs>
        <linearGradient x1="50.2845124%" y1="71.5456183%" x2="49.7099078%" y2="28.6099771%" id="linearGradient-1">
            <stop stop-color="#FFBDD1" stop-opacity="0.4" offset="0%"></stop>
            <stop stop-color="#6386FF" stop-opacity="0.59" offset="100%"></stop>
        </linearGradient>
        <linearGradient x1="5.69901525%" y1="37.5299627%" x2="66.5150111%" y2="94.3327536%" id="linearGradient-2">
            <stop stop-color="#F9AEC5" offset="0%"></stop>
            <stop stop-color="#FED1DF" offset="50.8287%"></stop>
            <stop stop-color="#F9AEC5" offset="100%"></stop>
        </linearGradient>
        <linearGradient x1="67.6418786%" y1="1.48778651%" x2="16.771472%" y2="87.4908351%" id="linearGradient-3">
            <stop stop-color="#BD9DD6" offset="0%"></stop>
            <stop stop-color="#E6CCFB" offset="50.8287%"></stop>
            <stop stop-color="#BD9DD6" offset="100%"></stop>
        </linearGradient>
        <linearGradient x1="4.8901163%" y1="47.0428517%" x2="78.4995555%" y2="93.0561543%" id="linearGradient-4">
            <stop stop-color="#6785EF" offset="0%"></stop>
            <stop stop-color="#B2C3FF" offset="50.8287%"></stop>
            <stop stop-color="#6785EF" offset="100%"></stop>
        </linearGradient>
        <linearGradient x1="101.059723%" y1="77.6479638%" x2="11.5328833%" y2="4.04587643%" id="linearGradient-5">
            <stop stop-color="#F9AEC5" offset="0%"></stop>
            <stop stop-color="#FED5E2" offset="50.8287%"></stop>
            <stop stop-color="#F9AEC5" offset="100%"></stop>
        </linearGradient>
        <linearGradient x1="12.6983339%" y1="11.6054716%" x2="106.938025%" y2="57.6202144%" id="linearGradient-6">
            <stop stop-color="#7E79E1" offset="0%"></stop>
            <stop stop-color="#DAD8FF" offset="50.8287%"></stop>
            <stop stop-color="#7E79E1" offset="100%"></stop>
        </linearGradient>
        <linearGradient x1="51.54763%" y1="22.7839828%" x2="45.4971324%" y2="74.582176%" id="linearGradient-7">
            <stop stop-color="#384F9F" offset="0%"></stop>
            <stop stop-color="#3951B2" offset="100%"></stop>
        </linearGradient>
        <linearGradient x1="100.953307%" y1="0.000742215087%" x2="100.953307%" y2="100.789098%" id="linearGradient-8">
            <stop stop-color="#3C56C6" offset="0%"></stop>
            <stop stop-color="#334891" offset="100%"></stop>
        </linearGradient>
        <linearGradient x1="-24.042598%" y1="-1.27531341%" x2="-24.042598%" y2="99.9994876%" id="linearGradient-9">
            <stop stop-color="#3C56C6" offset="0%"></stop>
            <stop stop-color="#334891" offset="100%"></stop>
        </linearGradient>
        <linearGradient x1="46.1101797%" y1="0%" x2="46.1101797%" y2="100.00101%" id="linearGradient-10">
            <stop stop-color="#3C56C6" offset="0%"></stop>
            <stop stop-color="#334891" offset="100%"></stop>
        </linearGradient>
    </defs>
    <g id="Page-1" stroke="none" stroke-width="1" fill="none" fill-rule="evenodd">
        <g id="Transfer-Money" transform="translate(-124.000000, -84.000000)">
            <g id="编组" transform="translate(124.000000, 84.000000)">
                <g id="bg" transform="translate(64.000000, 72.000000)" fill="url(#linearGradient-1)" fill-opacity="0.15" fill-rule="nonzero">
                    <path d="M1.348,162.188 C12.155,106.349 63.886,99.773 108.475,74.357 C144.801,53.651 168.193,10.021 246.388,1.557 C324.583,-6.907 401.324,51.247 395.209,134.102 C389.095,216.958 307.303,280.391 186.706,253.577 C66.109,226.762 -9.46,218.026 1.348,162.188 Z" id="Shape"></path>
                </g>
                <g id="plants" transform="translate(98.000000, 244.000000)" fill-rule="nonzero">
                    <g id="plant-3" transform="translate(341.000000, 0.000000)">
                        <path d="M38.021,41.683 C29.111,14.641 10.356,5.845 1.14,0.487 C-0.174,6.955 0.333,12.092 2.347,23.995 C4.361,35.898 11.511,48.005 23.133,54.063 C10.591,68.684 17.496,96.69 21.967,108.803 C22.979,111.545 25.942,111.491 27.363,108.866 C33.721,97.115 46.995,68.921 38.021,41.683 Z" id="Shape" fill="#FFBDD1"></path>
                        <path d="M53.954,79.713 C66.779,60.516 76.231,43.989 90.376,45.468 C83.289,38.212 47.471,36.718 32.965,69.493 C22.254,93.693 21.757,105.506 22.231,110.031 C22.359,111.257 23.617,111.72 24.617,111.001 C29.361,107.591 42.072,97.499 53.954,79.713 Z" id="Shape" fill="#F9759C"></path>
                    </g>
                    <g id="plant-2" transform="translate(309.000000, 53.000000)">
                        <path d="M28.037,39.709 L32.801,56.851 C33.06,57.782 32.423,58.724 31.462,58.83 C30.704,58.913 29.996,58.439 29.784,57.707 L24.843,40.657 L11.428,37.12 L24.374,38.799 L21.509,28.25 L9.012,21.149 L21.09,25.789 L18.204,7.96 L24.284,24.84 L33.795,15.316 L24.703,27.301 L27.568,37.85 L39.355,30.941 L28.037,39.709 Z" id="Shape" fill="#F9759C"></path>
                        <ellipse id="Oval" fill="#FFBDD1" transform="translate(40.543000, 31.646000) scale(-1, 1) rotate(-4.734043) translate(-40.543000, -31.646000) " cx="40.543" cy="31.646" rx="5.58863266" ry="5.44044259"></ellipse>
                        <ellipse id="Oval" fill="#FFBDD1" transform="translate(34.513000, 14.162000) scale(-1, 1) rotate(-4.734043) translate(-34.513000, -14.162000) " cx="34.513" cy="14.162" rx="5.58863266" ry="5.44044259"></ellipse>
                        <ellipse id="Oval" fill="#FFBDD1" transform="translate(17.685000, 6.703000) scale(-1, 1) rotate(-4.734043) translate(-17.685000, -6.703000) " cx="17.685" cy="6.703" rx="5.58863266" ry="5.44044259"></ellipse>
                        <ellipse id="Oval" fill="#FFBDD1" transform="translate(6.487000, 21.546000) scale(-1, 1) rotate(-4.734043) translate(-6.487000, -21.546000) " cx="6.487" cy="21.546" rx="5.58863266" ry="5.44044259"></ellipse>
                        <ellipse id="Oval" fill="#FFBDD1" transform="translate(8.902000, 37.517000) scale(-1, 1) rotate(-4.734043) translate(-8.902000, -37.517000) " cx="8.902" cy="37.517" rx="5.58863266" ry="5.44044259"></ellipse>
                    </g>
                    <g id="plant-1" transform="translate(0.000000, 33.000000)" fill="#6785EF">
                        <path d="M16.765,29.113 C3.229,45.286 0.378,75.963 0.644,89.28 C7.573,75.671 22.826,55.962 33.402,48.109 C41.545,42.063 59.712,16.092 66.881,0.256 C60.475,11.458 33.686,8.897 16.765,29.113 Z" id="Shape"></path>
                        <path d="M38.397,45.651 C20.098,52.283 5.386,77.272 0.318,88.937 C11.807,80.931 33.016,72.172 45.409,71.128 C54.95,70.325 81.207,57.734 93.793,47.931 C83.72,54.139 61.271,37.361 38.397,45.651 Z" id="Shape" fill-opacity="0.6"></path>
                    </g>
                </g>
                <g id="shadows" transform="translate(153.000000, 356.000000)" fill="#F3F3F3" fill-rule="nonzero">
                    <path d="M240,16.583 C240,25.742 209.302,61.256 106.744,58.887 C18.937,56.859 0,25.742 0,16.583 C0,7.424 41.813,0 112.326,0 C182.838,0 240,7.424 240,16.583 Z" id="Shape"></path>
                </g>
                <g id="wallet-1" transform="translate(0.000000, 89.000000)" fill-rule="nonzero">
                    <path d="M186.482,140.122 L174.042,118.073 L171.946,113.839 C171.946,113.839 54.671,203.376 52.028,209.087 C49.384,214.799 51.826,222.981 66.626,213.762 C80.667,205.017 153.154,162.313 186.482,140.122 Z" id="Shape" fill="#6386FF"></path>
                    <path d="M181.412,110.565 C182.192,106.211 112.984,0.575 109.149,0.73382069 C106.595,0.841 33.922,72.674 9.055,99.312 C4.061,104.662 0.996,108.189 0.813,108.946 C-0.279,113.472 44.134,215.561 48.032,216.935 C50.961,217.968 54.448,218.525 57.988,217.745 C55.537,218.259 52.932,218.012 51.348,215.837 C48.293,211.643 180.633,114.918 181.412,110.565 Z" id="Shape" fill="#DAE2FF"></path>
                    <path d="M51.787,214.859 C52.164,211.488 148.906,137.843 181.472,112.002 C114.094,155.134 33.519,168.084 0.863,109.424 C-0.229,113.95 42.5,212 48.082,217.414 C51.049,220.291 58,218.5 62.5,216 C60.482,217.121 56.759,217.616 54.275,217.101 C52.722,216.779 51.653,216.063 51.787,214.859 Z" id="Shape" fill="#BAC6F4"></path>
                    <path d="M150.883,24.174 C138.359,31.568 110.813,52.379 96.914,62.503 L115.209,89.237 C127.623,80.129 152.189,61.123 164.674,52.814 C180.281,42.428 178.805,34.47 176.327,29.991 C173.85,25.511 166.537,14.932 150.883,24.174 Z" id="Shape" fill="#BAC6F4"></path>
                    <circle id="Oval" fill="#E7ECFF" transform="translate(160.540000, 36.031000) rotate(-2.379240) translate(-160.540000, -36.031000) " cx="160.54" cy="36.031" r="10.8737"></circle>
                </g>
                <g id="lines" transform="translate(132.000000, 21.000000)" stroke="#F3F3F3" stroke-dasharray="9.789999999999999" stroke-linecap="round" stroke-linejoin="round" stroke-width="2.93703">
                    <path d="M345.5,165.5 C303,-80.0001 39.5,-5.0001 0,97.5" id="Shape"></path>
                </g>
                <g id="wallet-2" transform="translate(428.000000, 95.000000)" fill-rule="nonzero">
                    <path d="M16.688,37.094 L20.274,29.397 L50.121,44.977 L44.542,52.951 C40.468,56.064 32.21,59.289 24.258,54.637 C16.305,49.985 15.563,41.923 16.688,37.094 Z" id="Shape" fill="url(#linearGradient-2)"></path>
                    <ellipse id="Oval" fill="#F9AEC5" transform="translate(34.898000, 37.350000) rotate(31.772299) translate(-34.898000, -37.350000) " cx="34.898" cy="37.35" rx="16.8046089" ry="17.0925921"></ellipse>
                    <path d="M0.098,119.15 L7.062,45.127 L49.218,71.646 L46.398,101.556 C61.014,115.245 90.925,143.891 93.641,148.967 C97.036,155.311 94.027,162.906 87.159,162.882057 C81.664,162.863 26.829,133.719 0.098,119.15 Z" id="Shape" fill="#EE7298"></path>
                    <path d="M94.951,157.515 C94.951,157.515 102.295,63.242 98.187,57.412 C80.985,32.992 56.771,11.128 44.679,0.732 L36.511,93.245 C47.441,102.161 92.623,143.2 94.951,157.515 Z" id="Shape" fill="#FFBDD1"></path>
                    <path d="M39.625,27.485 C52.22,35.892 60.543,46.579 68.074,55.027 L67.191,77.372 C62.648,73.491 52.558,63.569 46.92,58.403 C36.165,48.546 26.739,42.651 21.98,33.554 C18.955,27.772 23.881,16.975 39.625,27.485 Z" id="Shape" fill="#FE8FB0"></path>
                    <ellipse id="Oval" fill="#FFE4F6" transform="translate(33.904000, 34.347000) rotate(38.106100) translate(-33.904000, -34.347000) " cx="33.904" cy="34.347" rx="9.11477" ry="5.75669"></ellipse>
                </g>
                <g id="coins" transform="translate(138.000000, 0.000000)" fill-rule="nonzero">
                    <path d="M212.606,15.1057 L206,8.5 L181.5,45 L189.713,50.187 C190.542,50.711 191.539,50.927 192.485,50.668 C196.443,49.582 203.003,46.348 208.079,39.271 C213.328,31.953 214.076,21.949 213.659,17.253 C213.586,16.433 213.188,15.6877 212.606,15.1057 Z" id="Shape" fill="url(#linearGradient-3)"></path>
                    <ellipse id="Oval" fill="#6785EF" transform="translate(193.495000, 26.530000) scale(-1, 1) rotate(-34.727018) translate(-193.495000, -26.530000) " cx="193.495" cy="26.53" rx="13.3279929" ry="22.1283941"></ellipse>
                    <ellipse id="Oval" fill-opacity="0.59" fill="#F9AEC5" transform="translate(193.495000, 26.530000) scale(-1, 1) rotate(-34.727018) translate(-193.495000, -26.530000) " cx="193.495" cy="26.53" rx="13.3279929" ry="22.1283941"></ellipse>
                    <path d="M4.995,72.139 C4.997,71.779 5.058,65.861 7.048,61.499 C12.893,48.69 51.499,59.02 49.048,72.499 C48.183,77.258 45.393,82.619 44.658,83.977 C44.539,84.197 44.398,84.401 44.227,84.596 C39.86,89.601 30.522,95.66 19.432,92.105 C8.134,88.484 4.938,78.563 4.995,72.173 L4.995,72.139 Z" id="Shape" fill="url(#linearGradient-4)"></path>
                    <ellipse id="Oval" fill="#6785EF" transform="translate(27.975000, 67.377000) rotate(19.677460) translate(-27.975000, -67.377000) " cx="27.975" cy="67.377" rx="21.6593016" ry="22.0304928"></ellipse>
                    <path d="M281.091,74.157 L285.755,69.584 L250.633,37.542 L245.995,43.293 C245.4,44.031 245.071,44.962 245.21,45.909 C245.903,50.647 249.259,59.516 257.439,66.308 C264.766,72.393 273.467,75.59 278.648,75.335 C279.584,75.289 280.422,74.812 281.091,74.157 Z" id="Shape" fill="url(#linearGradient-5)"></path>
                    <ellipse id="Oval" fill="#F9AEC5" transform="translate(269.076000, 52.716000) scale(-1, 1) rotate(-132.762297) translate(-269.076000, -52.716000) " cx="269.076" cy="52.716" rx="11.8599994" ry="23.7359089"></ellipse>
                    <path d="M81.892,17.663 L87,10.0001 L141,49 L135.736,55.48 C134.954,56.441 133.812,57.011 132.656,56.801 C127.194,55.809 116.471,51.134 106,43.5 C94.132,34.848 83.566,26.554 81.378,20.53 C81.032,19.579 81.318,18.523 81.892,17.663 Z" id="Shape" fill="url(#linearGradient-6)"></path>
                    <path d="M110.248,35.217 C95.399,24.367 85.058,12.8831 87.151,9.5672 C89.245,6.2512 102.98,12.359 117.829,23.209 C132.679,34.059 143.02,45.543 140.926,48.859 C138.833,52.175 125.098,46.067 110.248,35.217 Z" id="Shape" fill="#6785EF"></path>
                    <path d="M110.248,35.217 C95.399,24.367 85.058,12.8831 87.151,9.5672 C89.245,6.2512 102.98,12.359 117.829,23.209 C132.679,34.059 143.02,45.543 140.926,48.859 C138.833,52.175 125.098,46.067 110.248,35.217 Z" id="Shape" fill-opacity="0.2" fill="#D84AA8"></path>
                </g>
                <g id="character" transform="translate(209.000000, 246.000000)" fill-rule="nonzero">
                    <path d="M64.269,49.664 C63.585,51.375 61.133,52.087 59.993,52.23 C60.278,54.653 62.815,59.842 70.684,61.211 C78.553,62.579 81.661,55.509 82.231,51.802 C80.378,49.379 77.869,43.506 82.658,39.4 C88.646,34.268 91.212,17.59 83.514,12.885 C75.816,8.181 68.25,11.504 66.408,12.885 C62.986,15.451 61.276,21.011 59.993,24.86 C58.71,28.709 59.993,34.696 59.993,36.834 C59.993,38.545 63.699,41.538 65.552,42.821 C65.41,44.39 64.954,47.953 64.269,49.664 Z" id="Shape" fill="#FCD8E3"></path>
                    <path d="M111.949,125.153 C111.813,124.215 110.215,120.761 109.259,119.151 C109.728,118.689 110.835,117.711 111.508,117.493 C112.18,117.274 113.951,117.195 114.752,117.183 L117.726,122.365 C118.306,122.053 121.054,122.107 124.141,122.793 C127.99,123.648 131.411,125.787 132.605,127.573 C133.489,128.896 127.264,130.344 124.73,129.165 C121.309,127.573 120.074,129.578 117.339,129.165 C114.603,128.752 112.166,126.642 111.949,125.153 Z" id="Shape" fill="#FCD8E3"></path>
                    <path d="M16.51,128.272 C16.855,127.406 18.924,124.506 20.043,123.21 C19.821,122.643 19.268,121.414 18.834,121.029 C18.4,120.643 17.128,120.105 16.546,119.884 L13.02,124.084 C12.678,123.633 10.657,122.966 8.224,122.819 C5.189,122.634 2.132,123.794 0.793,125.198 C-0.198,126.238 3.97,129.255 6.128,128.785 C9.043,128.15 9.42,130.398 11.526,130.716 C13.631,131.034 15.962,129.645 16.51,128.272 Z" id="Shape" fill="#FCD8E3"></path>
                    <path d="M24.925,92.002 C20.819,98.16 15.089,113.527 12.523,121.938 C15.231,123.648 21.076,126.043 22.786,121.938 C24.497,117.832 31.625,106.97 35.188,100.555 L46.735,81.31 L46.735,123.221 C48.446,122.365 56.999,120.655 67.263,120.655 C76.158,120.655 83.086,124.931 86.507,124.931 L86.507,109.536 L89.501,79.6 L97.199,92.857 L108.745,120.227 C111.14,121.938 114.59,119.514 116.015,118.089 L107.462,90.291 C104.896,80.027 98.824,55.822 96.771,53.085 C94.718,50.348 86.365,52.087 82.231,51.802 C80.948,54.368 76.757,59.5 70.256,59.5 C63.756,59.5 61.561,54.368 61.275,51.802 C58.709,51.232 52.637,50.776 48.873,53.513 C45.11,56.25 30.912,80.883 24.925,92.002 Z" id="Shape" fill="#FCA9C3"></path>
                    <path d="M45.025,112.529 L45.025,117.661 C45.025,118.089 44.854,125.872 44.597,133.057 C44.34,140.269 48.018,143.748 54.861,147.17 L62.559,147.17 L71.539,147.17 C81.803,147.17 84.797,137.761 86.507,136.478 C87.876,135.452 85.224,122.08 86.507,113.812 C81.233,112.672 75.388,110.391 65.98,110.391 C57.427,110.391 45.025,111.246 45.025,112.529 Z" id="Shape" fill="url(#linearGradient-7)"></path>
                    <path d="M27,179.698 L27,172 L34.27,172 L34.27,179.698 C34.27,179.698 32.987,182.691 30.421,182.691 C27.856,182.691 27,180.696 27,179.698 Z" id="Shape" fill="#FCD8E3"></path>
                    <path d="M92,182.408 L92,173 L98.843,173 C98.985,175.851 99.185,180.356 98.843,182.408 C98.415,184.974 92,184.119 92,182.408 Z" id="Shape" fill="#FCD8E3"></path>
                    <path d="M16.121,195.288 C16.463,192.551 23.819,184.026 27.24,180.32 C27.81,181.032 27.24,182.03 30.234,182.03 C33.227,182.03 34.51,179.037 34.51,180.32 C34.51,181.175 36.648,185.879 34.938,187.59 C33.227,189.3 28.095,202.558 22.108,202.558 C16.121,202.558 15.693,198.709 16.121,195.288 Z" id="Shape" fill="#B2C3FF"></path>
                    <path d="M96.25,183.741 C94.54,183.741 94.112,182.886 92.401,182.03 L91.546,187.59 C91.546,188.873 90.691,192.722 90.691,196.571 C90.691,200.419 94.967,205.979 100.954,205.551 C106.942,205.124 105.231,196.998 104.376,195.288 C103.691,193.919 100.669,185.879 99.244,182.03 C98.816,182.6 97.619,183.741 96.25,183.741 Z" id="Shape" fill="#B2C3FF"></path>
                    <path d="M25.78,127.925 C24.412,133.057 25.21,158.289 25.78,170.263 C29.544,175.395 34.761,173.257 36.899,171.546 L42.886,136.478 C45.024,139.757 50.67,145.972 56.144,144.604 C62.986,142.893 59.137,131.774 58.709,127.925 C58.282,124.076 48.873,113.812 46.735,109.108 C44.597,104.404 39.465,106.542 35.188,106.97 C30.912,107.398 27.491,121.51 25.78,127.925 Z" id="Shape" fill="url(#linearGradient-8)"></path>
                    <path d="M76.243,144.604 C73.016,144.943 70.969,144.176 70.256,143.321 C69.686,142.038 68.546,138.873 68.546,136.478 C68.546,133.485 70.256,126.642 74.533,121.083 C78.809,115.523 89.073,106.97 93.35,106.97 C97.626,106.97 100.192,109.108 101.475,112.957 C102.758,116.806 101.475,171.546 98.909,173.257 C96.856,174.625 92.922,173.827 91.211,173.257 C89.928,169.123 87.106,158.973 86.079,151.446 C85.053,143.919 86.507,136.336 87.362,133.485 C84.939,136.763 84.369,143.748 76.243,144.604 Z" id="Shape" fill="url(#linearGradient-9)"></path>
                    <path d="M60.42,3.477 C59.565,5.188 58.71,9.892 64.697,14.596 C66.55,14.026 70.941,13.57 73.678,16.307 C76.415,19.044 81.09,20.013 83.086,20.156 C87.79,28.709 83.941,34.838 83.941,38.545 C87.79,35.124 92.067,18.017 92.067,16.307 C92.067,14.938 89.786,13.456 88.646,12.885 C88.36,12.458 87.79,11.089 87.79,9.037 C87.79,6.471 82.231,3.477 78.81,2.194 C75.388,0.911 68.973,3.477 67.263,3.477 C65.894,3.477 63.842,1.196 62.986,0.056 C62.416,0.626 61.105,2.109 60.42,3.477 Z" id="Shape" fill="#B2C3FF"></path>
                    <path d="M62.559,38.973 C61.532,38.973 61.418,39.543 61.703,39.828 L65.552,42.821 L65.125,46.243 C66.265,45.387 68.717,43.591 69.401,43.249 C70.256,42.821 71.967,42.394 71.539,41.538 C71.112,40.683 63.842,38.973 62.559,38.973 Z" id="Shape" fill="#EDD2E4"></path>
                    <path d="M155.087,141.242 C154.061,140.9 137.838,121.428 129.855,111.734 L137.981,103.181 L152.521,115.583 L180.747,107.885 L197.853,124.991 L195.715,132.262 C182.6,135.398 156.114,141.584 155.087,141.242 Z" id="Shape" fill="url(#linearGradient-10)"></path>
                    <path d="M135.843,103.181 C135.871,103.167 135.903,103.157 135.939,103.152 C145.954,100.15 166.558,94.373 169.627,95.055 C172.706,95.74 181.174,104.179 185.023,108.313 L151.666,117.721 C147.06,112.696 137.615,102.915 135.939,103.152 C135.907,103.162 135.874,103.171 135.843,103.181 Z" id="Shape" fill="#FFBDD1"></path>
                </g>
            </g>
        </g>
    </g>
</svg>